<?xml version="1.0" encoding="utf-8"?>
<!-- Generator: Adobe Illustrator 27.0.1, SVG Export Plug-In . SVG Version: 6.00 Build 0)  -->
<svg version="1.1" id="Camada_1" xmlns="http://www.w3.org/2000/svg" xmlns:xlink="http://www.w3.org/1999/xlink" x="0px" y="0px"
	 viewBox="0 0 512 512" style="enable-background:new 0 0 512 512;" xml:space="preserve">
<style type="text/css">
	.st0{fill-rule:evenodd;clip-rule:evenodd;fill:#4D057C;}
</style>
<g>
	<path class="st0" d="M303.1,167.7L256.8,141l-46.3,26.7l-46.3,26.7v106.8l46.3,26.7l17.9,10.3v32.5l26.9-15.5v-1.5l1.3,0.7l0.2,0.1
		l1.7-1l44.6-25.7l46.3-26.7V194.4L303.1,167.7z M214.6,264c-9,0-16.4-7.3-16.4-16.4c0-9,7.4-16.4,16.4-16.4c9,0,16.4,7.4,16.4,16.4
		C231,256.6,223.6,264,214.6,264z M299,264c-9,0-16.4-7.3-16.4-16.4c0-9,7.4-16.4,16.4-16.4c9,0,16.4,7.4,16.4,16.4
		C315.4,256.6,308,264,299,264z"/>
	<path class="st0" d="M437,75.2C390.6,28.8,326.6,0,256.1,0C115.3,0,0,115.3,0,256.1v0C0,397,115.3,512.3,256.1,512.3h244.4
		c6.5,0,11.8-5.3,11.8-11.8V256.1C512.3,185.7,483.4,121.6,437,75.2z M121.9,272.5l-13.7-7.8v-40.3l13.7-7.8V272.5z M385.9,322.4
		l-64.6,37.3L256.8,397l-0.1-0.1l-1.4-0.8v1.7l-26.9,15.8v-32.9l-36.2-20.9l-64.6-37.3V173.3l64.6-37.3l64.6-37.3l64.6,37.3
		l64.6,37.3L385.9,322.4L385.9,322.4z M404,264.7l-13.7,7.8v-55.8l13.7,7.8V264.7z"/>
</g>
</svg>
